<?xml version="1.0" standalone="no"?>
<!DOCTYPE svg PUBLIC "-//W3C//DTD SVG 20010904//EN"
 "http://www.w3.org/TR/2001/REC-SVG-20010904/DTD/svg10.dtd">
<svg version="1.0" xmlns="http://www.w3.org/2000/svg"
 width="180.000000pt" height="150.000000pt" viewBox="0 0 180.000000 150.000000"
 preserveAspectRatio="xMidYMid meet">

<g transform="translate(0.000000,150.000000) scale(0.100000,-0.100000)"
fill="#000000" stroke="none">
<path d="M715 1435 c-325 -60 -587 -281 -650 -547 -19 -81 -19 -208 0 -283 30
-119 80 -202 184 -305 78 -78 113 -105 186 -142 230 -118 472 -146 716 -84
285 72 499 254 575 489 34 104 38 249 10 342 -78 261 -318 461 -631 526 -106
22 -284 24 -390 4z m384 -95 c64 -13 127 -35 200 -71 92 -45 118 -63 192 -138
99 -99 140 -173 165 -294 55 -270 -141 -550 -461 -656 -504 -167 -1054 127
-1055 564 -1 405 469 696 959 595z"/>
<path d="M406 946 c-53 -95 -96 -178 -96 -185 0 -12 193 -361 197 -357 2 1 45
78 96 170 51 93 97 168 102 168 5 0 52 -76 104 -170 52 -94 97 -169 101 -167
4 3 50 81 101 175 52 93 96 170 99 170 3 0 48 -79 100 -175 52 -96 97 -175
100 -175 5 0 187 324 198 351 4 9 -189 359 -197 359 -3 0 -48 -77 -100 -170
-51 -94 -96 -172 -100 -174 -3 -2 -49 74 -101 170 -52 95 -98 174 -101 174 -4
0 -49 -76 -100 -170 -52 -93 -97 -170 -100 -170 -4 0 -50 79 -104 175 -53 96
-98 175 -100 175 -1 0 -46 -78 -99 -174z"/>
</g>
</svg>
